<svg width="220" height="64" viewBox="0 0 220 64" fill="none" xmlns="http://www.w3.org/2000/svg">
    <path fill-rule="evenodd" clip-rule="evenodd" d="M0 12.8C0 5.73 5.73 0 12.8 0h194.4c7.069 0 12.8 5.73 12.8 12.8v38.4c0 7.07-5.731 12.8-12.8 12.8H12.8C5.73 64 0 58.27 0 51.2V12.8z" fill="#2F3043"/>
    <mask id="rxf5bp1tia" style="mask-type:alpha" maskUnits="userSpaceOnUse" x="0" y="0" width="220" height="64">
        <path fill-rule="evenodd" clip-rule="evenodd" d="M0 16C0 7.163 7.163 0 16 0h188c8.837 0 16 7.163 16 16v32c0 8.837-7.163 16-16 16H16C7.163 64 0 56.837 0 48V16z" fill="#fff"/>
    </mask>
    <g mask="url(#rxf5bp1tia)" fill="#fff">
        <g clip-path="url(#5zodzz1ocb)">
            <path fill-rule="evenodd" clip-rule="evenodd" d="M126.637 44.064c0 2.515-2.027 4.09-5.031 4.09-3.042 0-5.069-1.863-5.184-4.724h2.755c.114 1.364 1.013 2.227 2.429 2.227 1.282 0 2.143-.537 2.143-1.555 0-1.088-1.189-1.381-2.583-1.724-1.975-.487-4.362-1.075-4.362-4.17 0-2.227 1.913-3.802 4.63-3.802 2.889 0 4.84 1.67 4.916 4.224h-2.735c-.096-1.056-.899-1.747-2.181-1.747-1.129 0-1.837.538-1.837 1.325 0 1.179 1.246 1.461 2.689 1.788 1.988.45 4.351.986 4.351 4.068zM78.984 48l1.053-2.938h4.84L85.928 48h2.984l-5.089-13.44H81.09L76 48h2.984zm5.029-5.357h-3.118l1.568-4.359 1.55 4.359zm8.782 4.493v4.78h-2.659V38.324h2.66v1.056c.573-.749 1.53-1.21 2.773-1.21 2.697 0 4.42 1.978 4.42 4.992 0 3.015-1.876 4.992-4.65 4.992-1.09 0-2.027-.364-2.544-1.017zm2.223-1.286c-1.435 0-2.372-1.075-2.372-2.688 0-1.632.937-2.707 2.372-2.707 1.396 0 2.353 1.075 2.353 2.707 0 1.613-.957 2.688-2.353 2.688zm9.236 1.286v4.78h-2.66V38.324h2.66v1.056c.573-.749 1.53-1.21 2.773-1.21 2.698 0 4.42 1.978 4.42 4.992 0 3.015-1.875 4.992-4.649 4.992-1.091 0-2.028-.364-2.544-1.017zm2.222-1.286c-1.435 0-2.372-1.075-2.372-2.688 0-1.632.937-2.707 2.372-2.707 1.397 0 2.353 1.075 2.353 2.707 0 1.613-.956 2.688-2.353 2.688zm28.01 2.15v-2.246h-1.225c-.861 0-1.358-.442-1.358-1.383v-3.82h2.583v-2.228h-2.583v-2.86h-2.659v2.188c0 .48-.268.672-.67.672h-1.186v2.227h1.856v3.937c0 2.246 1.435 3.513 3.654 3.513h1.588zm11.013-4.839c0 2.88-2.123 4.992-5.089 4.992-2.965 0-5.088-2.111-5.088-4.992 0-2.88 2.123-4.992 5.088-4.992 2.966 0 5.089 2.113 5.089 4.992zm-5.089 2.689c-1.435 0-2.41-1.095-2.41-2.688 0-1.613.975-2.707 2.41-2.707s2.41 1.094 2.41 2.707c0 1.593-.975 2.688-2.41 2.688zm9.223-2.554V48h-2.679v-9.677h2.679v1.613c.516-1.21 1.243-1.613 2.41-1.613h1.091v2.228h-1.588c-1.32 0-1.913 1.094-1.913 2.745zm9.201 4.858c2.372 0 4.209-1.345 4.591-3.437h-2.601c-.211.825-.919 1.248-1.99 1.248-1.339 0-2.2-.845-2.391-2.208h6.925c.019-.212.038-.5.038-.864 0-2.208-1.358-4.724-4.763-4.724-3.272 0-4.764 2.516-4.764 4.973 0 2.439 1.684 5.011 4.955 5.011zm-2.352-6.087h4.266c-.076-1.075-.822-1.939-2.104-1.939-1.205 0-1.932.595-2.162 1.94z"/>
            <path d="M77.022 26h2.898c2.744 0 4.886-1.778 4.886-4.9 0-3.122-2.142-4.9-4.886-4.9h-2.898V26zm1.204-1.078v-7.644h1.666c1.904 0 3.668 1.12 3.668 3.822s-1.764 3.822-3.668 3.822h-1.666zm11.269 1.19c2.1 0 3.598-1.526 3.598-3.64 0-2.128-1.498-3.64-3.598-3.64-2.086 0-3.584 1.512-3.584 3.64 0 2.114 1.498 3.64 3.584 3.64zm0-1.008c-1.442 0-2.436-1.092-2.436-2.632s.994-2.632 2.436-2.632c1.456 0 2.45 1.092 2.45 2.632s-.994 2.632-2.45 2.632zm6.33.896h1.079l1.722-5.614L100.362 26h1.078l2.142-7.056h-1.134l-1.554 5.6-1.708-5.6h-1.092l-1.736 5.6-1.554-5.6h-1.12L95.826 26zm8.935 0h1.12v-3.808c0-1.372.868-2.338 2.072-2.338 1.064 0 1.764.812 1.764 2.016V26h1.12v-4.312c0-1.722-1.036-2.856-2.632-2.856-1.078 0-1.96.49-2.324 1.47v-1.358h-1.12V26zm7.986 0h1.12v-9.954h-1.12V26zm6.198.112c2.1 0 3.598-1.526 3.598-3.64 0-2.128-1.498-3.64-3.598-3.64-2.086 0-3.584 1.512-3.584 3.64 0 2.114 1.498 3.64 3.584 3.64zm0-1.008c-1.442 0-2.436-1.092-2.436-2.632s.994-2.632 2.436-2.632c1.456 0 2.45 1.092 2.45 2.632s-.994 2.632-2.45 2.632zm7.7-6.272c-1.582 0-2.87 1.008-2.996 2.366h1.064c.056-.77.868-1.414 1.904-1.414 1.204 0 1.89.658 1.89 1.624 0 .224-.14.378-.448.378h-1.596c-1.708 0-2.814.854-2.814 2.198 0 1.288.966 2.128 2.45 2.128 1.092 0 2.03-.518 2.408-1.33V26h1.12v-4.55c0-1.568-1.148-2.618-2.982-2.618zm-.378 6.328c-.896 0-1.47-.462-1.47-1.19 0-.826.686-1.33 1.736-1.33h1.974v.182c0 1.456-.826 2.338-2.24 2.338zm8.013.952c.994 0 1.918-.504 2.338-1.274V26h1.12v-9.954h-1.12v4.046c-.42-.756-1.344-1.26-2.338-1.26-2.198 0-3.402 1.582-3.402 3.64s1.204 3.64 3.402 3.64zm.098-1.008c-1.414 0-2.352-1.036-2.352-2.632s.938-2.632 2.352-2.632 2.338 1.036 2.338 2.632-.924 2.632-2.338 2.632zm11.774 1.008c2.1 0 3.598-1.526 3.598-3.64 0-2.128-1.498-3.64-3.598-3.64-2.086 0-3.584 1.512-3.584 3.64 0 2.114 1.498 3.64 3.584 3.64zm0-1.008c-1.442 0-2.436-1.092-2.436-2.632s.994-2.632 2.436-2.632c1.456 0 2.45 1.092 2.45 2.632s-.994 2.632-2.45 2.632zm5.039.896h1.12v-3.808c0-1.372.868-2.338 2.072-2.338 1.064 0 1.764.812 1.764 2.016V26h1.12v-4.312c0-1.722-1.036-2.856-2.632-2.856-1.078 0-1.96.49-2.324 1.47v-1.358h-1.12V26zm11.965-9.31v1.876c0 .266-.126.378-.378.378h-1.092v.994h1.47v3.85c0 1.372.868 2.212 2.212 2.212h1.078v-.994h-1.036c-.686 0-1.134-.462-1.134-1.246v-3.822h2.17v-.994h-2.17V16.69h-1.12zm4.593 9.31h1.12v-3.808c0-1.372.868-2.338 2.072-2.338 1.064 0 1.764.812 1.764 2.016V26h1.12v-4.312c0-1.722-1.036-2.856-2.632-2.856-1.078 0-1.96.49-2.324 1.47v-4.256h-1.12V26zm13.108-2.268c-.224.882-.952 1.386-2.1 1.386-1.33 0-2.296-1.036-2.38-2.492h5.516c.014-.098.028-.336.028-.49 0-1.876-1.232-3.304-3.29-3.304-2.072 0-3.36 1.526-3.36 3.598 0 2.016 1.4 3.682 3.486 3.682 1.75 0 2.996-.938 3.234-2.38h-1.134zm-2.226-3.948c1.26 0 2.058.756 2.142 1.946h-4.34c.21-1.246 1.008-1.946 2.198-1.946z"/>
        </g>
        <path d="M37.249 50.249c-5.554-.032-10.147-11.41-10.147-17.204 0-9.465 7.074-11.537 9.8-11.537 1.23 0 2.541.484 3.699.913.809.299 1.646.607 2.111.607.279 0 .935-.262 1.515-.493 1.236-.494 2.775-1.108 4.566-1.108h.01c1.338 0 5.394.295 7.832 3.97l.571.862-.822.622c-1.174.89-3.317 2.511-3.317 5.725 0 3.805 2.427 5.269 3.593 5.973.514.31 1.047.631 1.047 1.332 0 .457-3.638 10.281-8.922 10.281-1.292 0-2.206-.39-3.012-.734-.816-.348-1.52-.648-2.682-.648-.59 0-1.334.28-2.123.576-1.078.404-2.299.863-3.683.863h-.036zM49.358 12.8c.137 4.98-3.41 8.433-6.955 8.217-.584-3.974 3.544-8.217 6.955-8.217z"/>
    </g>
    <defs>
        <clipPath id="5zodzz1ocb">
            <path fill="#fff" transform="translate(74.928 14.4)" d="M0 0h121.159v36.8H0z"/>
        </clipPath>
    </defs>
</svg>
