<svg width="24" height="24" viewBox="0 0 24 24" fill="none" xmlns="http://www.w3.org/2000/svg">
    <path d="M17.396 20.882c1.501-.39 2.732-1.5 3.342-2.32.31-.42.35-.99.09-1.44-.68-1.21-1.69-2.27-3.112-3.14-.52-.32-1.19-.24-1.62.2l-1.261 1.26c-.31.31-.79.37-1.171.16a13.49 13.49 0 0 1-5.273-5.27.984.984 0 0 1 .16-1.17l1.26-1.26c.43-.43.521-1.1.2-1.62-.88-1.42-1.94-2.43-3.141-3.11-.46-.26-1.02-.22-1.441.09-.82.61-1.931 1.84-2.321 3.34-1.291 4.94 9.355 15.58 14.298 14.29l-.01-.01z" stroke="#82838E" stroke-width="2" stroke-linecap="round" stroke-linejoin="round"/>
</svg>
