<svg width="83" height="55" viewBox="0 0 83 55" fill="none" xmlns="http://www.w3.org/2000/svg">
    <mask id="8asrm29cda" style="mask-type:alpha" maskUnits="userSpaceOnUse" x="0" y="0" width="83" height="55">
        <path fill-rule="evenodd" clip-rule="evenodd" d="M.31 45c0 5.523 4.477 10 10 10h62c5.522 0 10-4.477 10-10V10c0-5.523-4.478-10-10-10h-62c-5.523 0-10 4.477-10 10v35z" fill="#B43C3C"/>
    </mask>
    <g mask="url(#8asrm29cda)">
        <path d="M57.123-31.179c22.997 0 41.617 18.866 41.617 42.11s-18.62 42.11-41.616 42.11c-22.997 0-41.617-18.866-41.617-42.11s18.62-42.11 41.617-42.11z" fill="#FFC50B" stroke="url(#fyso3w7pkb)" stroke-width="2.245"/>
        <path d="M29.016 32.542v-4.666h1.308v4.676c0 1.001.636 1.503 1.567 1.503.93 0 1.577-.502 1.577-1.503v-4.676h1.295v4.665c0 1.774-1.159 2.722-2.872 2.722-1.714 0-2.875-.947-2.875-2.72zM36.323 29.922h1.285v.812c.292-.573.888-.897 1.64-.897 1.19 0 1.963.856 1.963 2.087v3.258h-1.289v-2.984c0-.72-.439-1.22-1.097-1.22-.72 0-1.222.563-1.222 1.336v2.868h-1.28v-5.26zM42.845 27.668h1.275v7.514h-1.275v-7.514zM45.625 28.325a.745.745 0 0 1 .774-.75.752.752 0 1 1 0 1.501.746.746 0 0 1-.774-.75zm.136 1.598h1.285v5.26H45.76v-5.26zM48.613 29.921h1.285v.823a1.621 1.621 0 0 1 1.526-.908c.835 0 1.41.356 1.64 1.003.24-.542.908-1.003 1.744-1.003 1.138 0 1.87.825 1.87 1.941v3.405h-1.275v-3.015c0-.74-.386-1.232-1.002-1.232-.69 0-1.118.491-1.118 1.232v3.015H52.01v-3.015c0-.74-.388-1.232-1.004-1.232-.678 0-1.107.491-1.107 1.232v3.015h-1.285v-5.26zM58.108 28.325a.748.748 0 0 1 .773-.75.753.753 0 0 1 .531 1.281.752.752 0 0 1-.531.22.75.75 0 0 1-.773-.75zm.136 1.598h1.285v5.26h-1.285v-5.26zM62.975 28.337v1.585h1.464v1.074h-1.463v2.296c0 .532.282.802.762.802h.7v1.09h-.845c-1.15 0-1.902-.669-1.902-1.838V31h-1.035v-1.077h.701c.208 0 .334-.095.334-.345v-1.242l1.284.002zM70.394 33.43c-.2 1.116-1.181 1.835-2.478 1.835-1.723 0-2.684-1.356-2.684-2.734s.857-2.692 2.58-2.692c1.767 0 2.56 1.283 2.56 2.535 0 .179-.01.335-.02.439h-3.89c.094.846.637 1.388 1.451 1.388.659 0 1.088-.272 1.224-.772h1.257zm-3.898-1.462h2.59a1.204 1.204 0 0 0-.8-1.1 1.21 1.21 0 0 0-.473-.07c-.722 0-1.181.377-1.317 1.17zM71.395 32.552c0-1.608.93-2.714 2.488-2.714.689 0 1.243.292 1.546.72v-2.89h1.275v7.514h-1.275v-.657c-.303.458-.888.74-1.526.74-1.579-.001-2.508-1.106-2.508-2.713zm4.116 0c0-.97-.565-1.608-1.42-1.608-.856 0-1.421.637-1.421 1.608 0 .97.563 1.607 1.42 1.607.858 0 1.421-.637 1.421-1.607z" fill="#112B41"/>
        <path d="M43.25 9.796v14.108h-3.02V18h-5.837v5.904h-3.02V9.796h3.02v5.603h5.831V9.796h3.027zM55.111 20.456c-.403 2.198-2.34 3.608-4.842 3.608-3.45 0-5.226-2.7-5.226-5.26 0-2.579 1.576-5.22 5.024-5.22 3.591 0 5.024 2.641 5.024 4.958 0 .383-.02.685-.04.907h-7.296c.202 1.431 1.11 2.318 2.523 2.318 1.13 0 1.876-.444 2.102-1.312l2.731.001zm-7.324-2.781h4.5c-.082-1.128-.868-2.035-2.22-2.035-1.261 0-2.032.628-2.275 2.035h-.005zM61.493 16.085c-1.392 0-2.017 1.149-2.017 2.886v4.937H56.65V13.747h2.826v1.692c.544-1.269 1.313-1.692 2.541-1.692h1.151v2.338h-1.675zM68.98 13.584c-3.128 0-5.368 2.217-5.368 5.24s2.233 5.24 5.367 5.24 5.367-2.217 5.367-5.24-2.24-5.24-5.367-5.24zm2.075 8.43-2.076-1.506-2.075 1.506.788-2.437-2.073-1.506h2.566l.788-2.436.788 2.436h2.565l-2.075 1.506.804 2.437z" fill="#ED2F3D"/>
    </g>
    <defs>
        <linearGradient id="fyso3w7pkb" x1="21.799" y1="26.919" x2="66.979" y2="-29.524" gradientUnits="userSpaceOnUse">
            <stop stop-color="#DAAA05"/>
            <stop offset=".599" stop-color="#D78526"/>
            <stop offset=".995" stop-color="#E85A0A"/>
        </linearGradient>
    </defs>
</svg>
