<svg width="32" height="32" viewBox="0 0 32 32" fill="none" xmlns="http://www.w3.org/2000/svg">
    <path d="M21.403 17.505c-.046-.022-1.788-.875-2.098-.985a1.211 1.211 0 0 0-.405-.09c-.235 0-.433.117-.587.346-.174.257-.7.869-.863 1.052-.021.024-.05.053-.068.053-.016 0-.285-.11-.367-.146-1.868-.807-3.286-2.747-3.48-3.074-.028-.047-.03-.068-.03-.068.007-.025.07-.088.102-.12.095-.093.198-.216.298-.335l.14-.166c.144-.167.209-.297.283-.447l.039-.078c.182-.359.026-.662-.024-.76-.04-.082-.776-1.846-.854-2.031-.188-.448-.437-.656-.782-.656-.032 0 0 0-.134.006-.164.006-1.055.123-1.449.37-.417.262-1.124 1.096-1.124 2.564 0 1.32.843 2.568 1.205 3.042.01.012.026.036.05.07 1.386 2.014 3.114 3.505 4.866 4.2 1.687.67 2.485.748 2.94.748.19 0 .343-.015.478-.028l.085-.008c.583-.051 1.863-.711 2.155-1.516.229-.634.29-1.326.137-1.577-.105-.171-.285-.257-.513-.366z" fill="#2F3043"/>
    <path d="M16.213 4C9.713 4 4.425 9.248 4.425 15.7c0 2.086.558 4.128 1.616 5.916l-2.025 5.972a.312.312 0 0 0 .39.397l6.228-1.979c1.704.911 3.63 1.392 5.58 1.392C22.711 27.398 28 22.15 28 15.7 28 9.248 22.712 4 16.213 4zm0 20.96c-1.834 0-3.61-.53-5.138-1.531a.311.311 0 0 0-.265-.037l-3.12.992 1.007-2.971a.312.312 0 0 0-.044-.284 9.135 9.135 0 0 1-1.777-5.43c0-5.107 4.189-9.262 9.337-9.262s9.336 4.155 9.336 9.262-4.188 9.262-9.336 9.262z" fill="#2F3043"/>
</svg>
