<svg width="208" height="64" viewBox="0 0 208 64" fill="none" xmlns="http://www.w3.org/2000/svg">
    <path fill-rule="evenodd" clip-rule="evenodd" d="M0 12.8C0 5.73 5.73 0 12.8 0h182.4c7.069 0 12.8 5.73 12.8 12.8v38.4c0 7.07-5.731 12.8-12.8 12.8H12.8C5.73 64 0 58.27 0 51.2V12.8z" fill="#2F3043"/>
    <mask id="g2khzijx5a" style="mask-type:alpha" maskUnits="userSpaceOnUse" x="0" y="0" width="208" height="64">
        <path fill-rule="evenodd" clip-rule="evenodd" d="M0 16C0 7.163 7.163 0 16 0h176c8.837 0 16 7.163 16 16v32c0 8.837-7.163 16-16 16H16C7.163 64 0 56.837 0 48V16z" fill="#fff"/>
    </mask>
    <g mask="url(#g2khzijx5a)">
        <path d="M82.292 26.112c1.442 0 2.66-.742 3.122-1.82V26h1.106v-3.36c0-1.12-1.022-1.68-1.736-1.68h-2.422v1.036h2.212c.476 0 .77.294.77.742 0 1.414-1.428 2.324-3.038 2.324-2.016 0-3.5-1.428-3.5-3.962 0-2.548 1.484-3.934 3.5-3.934 1.512 0 2.744.882 2.968 2.128h1.26c-.224-1.876-1.974-3.206-4.214-3.206-2.436 0-4.732 1.666-4.732 5.012 0 3.346 2.282 5.012 4.704 5.012zm11.039-2.38c-.224.882-.952 1.386-2.1 1.386-1.33 0-2.296-1.036-2.38-2.492h5.516c.014-.098.028-.336.028-.49 0-1.876-1.232-3.304-3.29-3.304-2.072 0-3.36 1.526-3.36 3.598 0 2.016 1.4 3.682 3.486 3.682 1.75 0 2.996-.938 3.234-2.38H93.33zm-2.226-3.948c1.26 0 2.058.756 2.142 1.946h-4.34c.21-1.246 1.008-1.946 2.198-1.946zm5.415-3.094v1.876c0 .266-.126.378-.377.378H95.05v.994h1.47v3.85c0 1.372.868 2.212 2.213 2.212h1.078v-.994h-1.037c-.686 0-1.133-.462-1.133-1.246v-3.822h2.17v-.994h-2.17V16.69h-1.12zm8.351.826a.756.756 0 1 0 0-1.512c-.448 0-.784.336-.784.756s.336.756.784.756zM104.297 26h1.12v-7.056h-1.12V26zm3.667-9.31v1.876c0 .266-.126.378-.378.378h-1.092v.994h1.47v3.85c0 1.372.868 2.212 2.212 2.212h1.078v-.994h-1.036c-.686 0-1.134-.462-1.134-1.246v-3.822h2.17v-.994h-2.17V16.69h-1.12zm10.954 9.422c2.1 0 3.598-1.526 3.598-3.64 0-2.128-1.498-3.64-3.598-3.64-2.086 0-3.584 1.512-3.584 3.64 0 2.114 1.498 3.64 3.584 3.64zm0-1.008c-1.442 0-2.436-1.092-2.436-2.632s.994-2.632 2.436-2.632c1.456 0 2.45 1.092 2.45 2.632s-.994 2.632-2.45 2.632zm5.039.896h1.12v-3.808c0-1.372.868-2.338 2.072-2.338 1.064 0 1.764.812 1.764 2.016V26h1.12v-4.312c0-1.722-1.036-2.856-2.632-2.856-1.078 0-1.96.49-2.324 1.47v-1.358h-1.12V26z" fill="#fff"/>
        <path d="m57.952 30.721-6.503-3.755-8.91 6.657 8.91 6.657 6.525-3.769a3.355 3.355 0 0 0 1.625-2.888c0-1.19-.607-2.27-1.647-2.902z" fill="#FF9100"/>
        <path d="m44.792 33.623-7.884 10.136-10.25 8.072a3.422 3.422 0 0 1-1.014-2.433V17.791c0-.946.383-1.802 1.014-2.433l10.25 8.128 7.884 10.137z" fill="#25D9F8"/>
        <path d="m44.792 33.622-2.253 2.906v-5.812l2.253 2.906z" fill="#00C0F1"/>
        <path d="m51.458 26.954-6.668 6.668-18.134-18.264c.225-.203.45-.36.699-.518a3.335 3.335 0 0 1 3.424.067l11.758 6.912 8.92 5.136z" fill="#7FE881"/>
        <path d="m51.46 26.955-6.668 6.668-2.253-2.253v-9.551l8.92 5.136z" fill="#5BC980"/>
        <path d="m51.458 40.29-8.92 5.136-11.782 6.878c-.54.316-1.126.496-1.735.496-.563 0-1.126-.158-1.666-.45a5.082 5.082 0 0 1-.699-.519L44.79 33.623l6.668 6.667z" fill="#FF637B"/>
        <path d="m51.46 40.29-8.92 5.136v-9.55l2.252-2.253 6.668 6.667z" fill="#E63950"/>
        <path fill-rule="evenodd" clip-rule="evenodd" d="M128.475 32.519V46.4h-2.669V32.52h2.669zm-41.28 11.827c-.441 1.325-1.862 2.208-3.59 2.208-3.437 0-6.605-2.285-6.605-6.874 0-4.589 3.264-6.873 6.816-6.873 3.38 0 5.798 1.977 5.971 4.857h-2.86c-.212-1.44-1.402-2.38-3.13-2.38-2.285 0-4.051 1.612-4.051 4.396s1.766 4.531 3.993 4.531c1.67 0 3.322-1.21 3.322-2.457 0-.327-.211-.538-.538-.538h-2.592v-2.17h3.648c1.248 0 2.17.999 2.17 2.17V46.4h-2.554v-2.054zm14.169-2.784c0 2.88-2.13 4.992-5.107 4.992-2.976 0-5.107-2.112-5.107-4.992s2.131-4.992 5.107-4.992c2.976 0 5.107 2.112 5.107 4.992zm-5.107 2.688c-1.44 0-2.42-1.095-2.42-2.688 0-1.613.98-2.707 2.42-2.707s2.419 1.094 2.419 2.707c0 1.593-.98 2.688-2.42 2.688zm16.282-2.688c0 2.88-2.131 4.992-5.107 4.992-2.976 0-5.107-2.112-5.107-4.992s2.131-4.992 5.107-4.992c2.976 0 5.107 2.112 5.107 4.992zm-5.107 2.688c-1.44 0-2.42-1.095-2.42-2.688 0-1.613.98-2.707 2.42-2.707s2.419 1.094 2.419 2.707c0 1.593-.979 2.688-2.419 2.688zm16.106 2.727c0 2.016-1.459 3.34-3.648 3.34h-4.877v-2.093h4.455c.806 0 1.401-.633 1.401-1.535V45.42c-.499.71-1.517 1.133-2.649 1.133-2.861 0-4.57-1.977-4.57-4.992 0-3.014 1.709-4.992 4.531-4.992 1.171 0 2.131.442 2.669 1.114v-.96h2.688v10.253zm-4.895-2.727c-1.421 0-2.362-1.056-2.362-2.688 0-1.632.941-2.707 2.362-2.707 1.44 0 2.381 1.075 2.381 2.707s-.941 2.688-2.381 2.688zm16.417 2.304c2.381 0 4.224-1.344 4.608-3.437h-2.611c-.211.826-.921 1.248-1.997 1.248-1.344 0-2.208-.845-2.4-2.208h6.951c.019-.21.038-.499.038-.864 0-2.208-1.363-4.723-4.781-4.723-3.283 0-4.78 2.515-4.78 4.973 0 2.438 1.689 5.011 4.972 5.011zm-2.36-6.087h4.282c-.077-1.075-.826-1.94-2.112-1.94-1.21 0-1.94.596-2.17 1.94zm15.624 5.933v-4.954h2.631c2.86 0 4.531-1.785 4.531-4.243 0-2.477-1.671-4.243-4.531-4.243h-5.53V46.4h2.899zm.001-7.354h2.458c1.344 0 1.92-.864 1.92-1.843s-.576-1.843-1.92-1.843h-2.458v3.686zm11.313 7.354V32.52h-2.669V46.4h2.669zm7.701-1.343c-.327.902-1.402 1.497-2.727 1.497-1.881 0-3.168-1.248-3.168-2.9 0-1.9 1.421-3.052 3.533-3.052h1.632c.48 0 .73-.307.73-.71 0-.807-.634-1.364-1.728-1.364-1.172 0-1.767.73-1.805 1.537h-2.381c.115-1.94 1.69-3.495 4.339-3.495 2.439 0 4.224 1.42 4.224 3.61v6.22h-2.649v-1.343zm-2.059-.443c-.749 0-1.286-.441-1.286-1.075 0-.749.576-1.248 1.382-1.248h1.959v.135c0 1.228-.749 2.188-2.055 2.188zm11.251 2.938c-.634 1.786-1.267 2.765-3.245 2.765h-1.421v-2.093h1.133c.423 0 .826-.288 1.075-.98l.365-.96-3.494-9.56h2.726l2.035 6.258 2.016-6.259h2.746l-3.533 9.677-.403 1.152z" fill="#fff"/>
    </g>
</svg>
