<svg width="24" height="24" viewBox="0 0 24 24" fill="none" xmlns="http://www.w3.org/2000/svg">
    <path d="M20.438 8.92A8.992 8.992 0 0 0 8.92 3.564" stroke="#82838E" stroke-width="2" stroke-linecap="round" stroke-linejoin="round"/>
    <path d="M20.438 8.92a8.971 8.971 0 0 0-17.122.802" stroke="#82838E" stroke-width="2" stroke-linecap="round" stroke-linejoin="round"/>
    <path d="m21.094 6.078-.657 2.853-2.843-.657M3.563 15.08a8.992 8.992 0 0 0 11.517 5.358" stroke="#82838E" stroke-width="2" stroke-linecap="round" stroke-linejoin="round"/>
    <path d="M3.563 15.08a8.97 8.97 0 0 0 17.12-.802" stroke="#82838E" stroke-width="2" stroke-linecap="round" stroke-linejoin="round"/>
    <path d="m2.906 17.923.657-2.854 2.843.657M10.368 15.697v-7.39l-2.381 1.775M13.632 8.306v7.39l2.381-1.765" stroke="#82838E" stroke-width="2" stroke-linecap="round" stroke-linejoin="round"/>
</svg>
