<svg width="50" height="50" viewBox="0 0 50 50" fill="none" xmlns="http://www.w3.org/2000/svg">
    <path fill-rule="evenodd" clip-rule="evenodd" d="M30.236 27.6c.509 0 1.018.005 1.527-.003.218-.004.316.073.315.301a294.828 294.828 0 0 0 0 3.018c0 .214-.07.315-.302.313a206.445 206.445 0 0 0-3.017 0c-.218 0-.314-.069-.313-.3.007-1.005.009-2.011 0-3.017-.003-.254.108-.32.337-.315.484.009.968.002 1.453.003zm-1.787 7.423c0-.559.008-1.118-.003-1.677-.004-.22.067-.31.297-.31 1.018.009 2.036.008 3.054.002.211-.002.286.084.282.288-.01.57.014 1.143-.019 1.713-.05.9-.69 1.68-1.576 1.842-.554.101-1.135.058-1.703.094-.27.017-.341-.1-.335-.35.012-.534.003-1.068.003-1.602zm-9.528-3.797c-.534 0-1.067-.008-1.6.004-.247.005-.363-.065-.36-.334.01-.993.008-1.986 0-2.98-.002-.248.105-.32.337-.32 1.092.007 2.184.007 3.276 0 .243 0 .325.099.324.335-.008.981-.011 1.962.002 2.943.003.287-.114.363-.378.356-.533-.013-1.067-.004-1.6-.004zm.006-5.45c-.546 0-1.093-.007-1.64.003-.24.004-.332-.087-.326-.33.012-.508-.006-1.018.008-1.527.03-1.155.87-2.014 2.029-2.067.52-.024 1.043 0 1.564-.009.233-.003.337.08.335.326a220.025 220.025 0 0 0 .001 3.28c.002.246-.097.33-.331.326-.547-.008-1.093-.002-1.64-.002zm-.01 7.265c.56 0 1.118.005 1.676-.003.223-.003.306.084.304.308-.007 1.105-.006 2.21 0 3.314 0 .217-.07.319-.3.314-.547-.01-1.094.018-1.639-.012a2.082 2.082 0 0 1-1.988-2.032c-.018-.52.007-1.043-.01-1.564-.01-.276.114-.335.357-.33.533.012 1.067.004 1.6.005zm3.788-3.63v-7.127c0-.234-.021-.442.328-.44 2.338.01 4.675-.015 7.012.016 1.162.015 1.99.902 2.026 2.068.015.485-.012.97.01 1.455.016.319-.11.402-.41.399-1.268-.013-2.537-.007-3.805-.006-.946.001-1.227.28-1.227 1.216v9.477c0 .502-.001.503-.516.503-.982 0-1.965-.018-2.946.01-.382.01-.482-.106-.48-.482.017-2.363.009-4.726.009-7.09zm-12.704-4.282c0 5.014-.003 10.029.002 15.043.002 1.832 1.024 3.306 2.697 3.842.453.145.952.2 1.43.2 6.929.013 13.857.015 20.786.006 2.475-.003 4.117-1.663 4.118-4.13.002-7.516-.004-15.031.004-22.546.002-1.362-.508-2.458-1.547-3.328-2.83-2.373-5.658-4.75-8.485-7.13a4.007 4.007 0 0 0-2.635-.97c-4.092-.033-8.184-.084-12.276-.116-2.392-.018-4.09 1.678-4.092 4.085-.006 5.015-.002 10.03-.002 15.044z" fill="url(#bao5hc8sxa)"/>
    <path fill-rule="evenodd" clip-rule="evenodd" d="M22.706 29.41c0 2.364.008 4.727-.009 7.09-.002.376.098.492.48.481.981-.026 1.964-.008 2.946-.009.515 0 .515 0 .516-.503v-9.477c0-.937.28-1.215 1.227-1.215 1.268-.001 2.537-.008 3.805.005.3.003.426-.08.411-.4-.023-.483.004-.97-.011-1.454-.035-1.166-.864-2.052-2.025-2.068-2.337-.03-4.675-.006-7.013-.016-.35-.002-.329.206-.329.44.002 2.376.002 4.751.002 7.127z" fill="url(#jfpy1yg80b)"/>
    <path fill-rule="evenodd" clip-rule="evenodd" d="M18.918 33.04c-.534 0-1.068.008-1.601-.004-.243-.005-.367.054-.358.33.018.521-.007 1.043.011 1.564a2.082 2.082 0 0 0 1.989 2.032c.544.03 1.091.002 1.637.012.23.005.302-.097.3-.314-.005-1.104-.006-2.21.001-3.314.002-.224-.081-.311-.304-.308-.558.008-1.117.003-1.675.002z" fill="url(#egvgiuaq2c)"/>
    <path fill-rule="evenodd" clip-rule="evenodd" d="M18.927 25.776c.547 0 1.093-.006 1.64.002.234.003.333-.08.331-.326a221.383 221.383 0 0 1 0-3.28c.001-.247-.103-.33-.335-.326-.522.008-1.045-.015-1.565.01-1.16.052-1.999.911-2.03 2.066-.013.509.005 1.019-.007 1.528-.006.242.086.333.327.329.546-.01 1.093-.003 1.64-.003z" fill="url(#izjx1xayjd)"/>
    <path fill-rule="evenodd" clip-rule="evenodd" d="M18.921 31.226c.534 0 1.068-.01 1.602.004.263.007.38-.07.377-.356-.013-.98-.01-1.962-.002-2.942.002-.237-.08-.336-.323-.335-1.093.006-2.185.006-3.277 0-.232-.002-.339.07-.337.32.009.993.01 1.986 0 2.98-.003.269.113.338.36.333.533-.012 1.066-.004 1.6-.004z" fill="url(#lp0wqrfkre)"/>
    <path fill-rule="evenodd" clip-rule="evenodd" d="M28.45 35.023c0 .534.008 1.068-.005 1.602-.005.25.067.367.336.35.568-.036 1.149.007 1.704-.094.885-.161 1.525-.941 1.576-1.842.032-.57.008-1.142.018-1.713.004-.204-.07-.29-.282-.288a223.67 223.67 0 0 1-3.054 0c-.23-.003-.301.088-.297.309.01.558.003 1.117.003 1.676z" fill="url(#7no3zkinff)"/>
    <path fill-rule="evenodd" clip-rule="evenodd" d="M30.236 27.6c-.485 0-.969.006-1.453-.003-.229-.005-.34.061-.338.315.01 1.006.008 2.012.001 3.018-.001.23.095.3.313.299 1.006-.007 2.012-.008 3.017 0 .232.002.303-.099.302-.313a291.993 291.993 0 0 1 0-3.018c.001-.228-.097-.305-.315-.301-.509.008-1.018.002-1.527.002z" fill="url(#bgu2g8rl0g)"/>
    <defs>
        <linearGradient id="bao5hc8sxa" x1="24.519" y1="6" x2="24.519" y2="44.226" gradientUnits="userSpaceOnUse">
            <stop stop-color="#2A3B63"/>
            <stop offset="1" stop-color="#161F33"/>
        </linearGradient>
        <linearGradient id="jfpy1yg80b" x1="27.39" y1="21.844" x2="27.39" y2="36.982" gradientUnits="userSpaceOnUse">
            <stop stop-color="#FFD133"/>
            <stop offset="1" stop-color="#FFA800"/>
        </linearGradient>
        <linearGradient id="egvgiuaq2c" x1="18.928" y1="33.036" x2="18.928" y2="36.976" gradientUnits="userSpaceOnUse">
            <stop stop-color="#FFD133"/>
            <stop offset="1" stop-color="#FFA800"/>
        </linearGradient>
        <linearGradient id="izjx1xayjd" x1="18.929" y1="21.844" x2="18.929" y2="25.779" gradientUnits="userSpaceOnUse">
            <stop stop-color="#FFD133"/>
            <stop offset="1" stop-color="#FFA800"/>
        </linearGradient>
        <linearGradient id="lp0wqrfkre" x1="18.93" y1="27.597" x2="18.93" y2="31.23" gradientUnits="userSpaceOnUse">
            <stop stop-color="#FFD133"/>
            <stop offset="1" stop-color="#FFA800"/>
        </linearGradient>
        <linearGradient id="7no3zkinff" x1="30.262" y1="33.037" x2="30.262" y2="36.977" gradientUnits="userSpaceOnUse">
            <stop stop-color="#FFD133"/>
            <stop offset="1" stop-color="#FFA800"/>
        </linearGradient>
        <linearGradient id="bgu2g8rl0g" x1="30.262" y1="27.596" x2="30.262" y2="31.229" gradientUnits="userSpaceOnUse">
            <stop stop-color="#FFD133"/>
            <stop offset="1" stop-color="#FFA800"/>
        </linearGradient>
    </defs>
</svg>
