<svg width="50" height="50" viewBox="0 0 50 50" fill="none" xmlns="http://www.w3.org/2000/svg">
    <path fill-rule="evenodd" clip-rule="evenodd" d="M40 17.528c.002-1.358-.508-2.454-1.544-3.324-2.83-2.37-5.653-4.742-8.474-7.118a3.993 3.993 0 0 0-2.632-.969c-4.088-.034-8.173-.084-12.261-.117-2.389-.019-4.084 1.676-4.086 4.08-.006 5.007-.002 10.016-.002 15.023 0 5.008-.004 10.017.002 15.024.002 1.829 1.023 3.302 2.693 3.837.452.145.95.199 1.43.2 6.918.012 13.837.014 20.758.006 2.47-.004 4.11-1.66 4.112-4.126.002-7.505-.004-15.01.004-22.516z" fill="url(#tna7gk3pca)"/>
    <path fill-rule="evenodd" clip-rule="evenodd" d="M23.491 35.43c.188-.756.354-1.42.517-2.083.428-1.732.858-3.464 1.278-5.198.054-.226.137-.322.394-.315.76.021 1.522.015 2.283.003.252-.004.287.068.228.305-.628 2.511-1.248 5.024-1.86 7.54-.055.226-.152.29-.378.289-1.64-.01-3.28-.01-4.918 0-.226.002-.326-.056-.381-.281-.612-2.516-1.23-5.03-1.86-7.54-.062-.252-.03-.32.238-.314.749.017 1.499.017 2.248 0 .258-.006.356.07.419.328.58 2.39 1.176 4.777 1.792 7.265zM32.104 31.91c0 1.25-.007 2.502.006 3.754.002.25-.074.312-.315.307a70.824 70.824 0 0 0-2.282-.002c-.21.003-.306-.03-.305-.28.01-2.526.009-5.053.001-7.579 0-.221.07-.275.28-.272.783.01 1.567.013 2.351-.001.228-.005.27.078.268.283-.008 1.263-.004 2.526-.004 3.79z" fill="#FDFDFD"/>
    <path fill-rule="evenodd" clip-rule="evenodd" d="M32.233 38.505c-.003.853-.727 1.584-1.56 1.575-.85-.008-1.575-.724-1.584-1.563-.01-.857.727-1.591 1.589-1.585a1.58 1.58 0 0 1 1.555 1.573z" fill="url(#i2zg0uymkb)"/>
    <defs>
        <linearGradient id="tna7gk3pca" x1="28.431" y1="5.381" x2="24.906" y2="43.896" gradientUnits="userSpaceOnUse">
            <stop offset=".01" stop-color="#F1525F"/>
            <stop offset="1" stop-color="#EE2737"/>
        </linearGradient>
        <linearGradient id="i2zg0uymkb" x1="30.66" y1="36.932" x2="30.66" y2="40.081" gradientUnits="userSpaceOnUse">
            <stop stop-color="#FFD133"/>
            <stop offset="1" stop-color="#FFA800"/>
        </linearGradient>
    </defs>
</svg>
