<svg width="50" height="50" viewBox="0 0 50 50" fill="none" xmlns="http://www.w3.org/2000/svg">
    <g clip-path="url(#seztwvfmga)" fill-rule="evenodd" clip-rule="evenodd">
        <path d="M27.821 25.297c0-.947-.35-1.708-1.07-2.305-1.955-1.646-3.93-3.293-5.886-4.94-.535-.452-1.132-.658-1.832-.679-2.84-.02-5.68-.061-8.52-.082-1.668-.02-2.841 1.173-2.841 2.84v20.87c0 1.276.72 2.285 1.873 2.655.309.103.659.144.988.144H24.94c1.708 0 2.86-1.152 2.86-2.86 0-5.228 0-10.435.021-15.643z" fill="url(#zbdjgi4ecb)"/>
        <path d="M20.412 39.91h-1.317v-1.338h2.058v.597c.02.412-.33.741-.741.741zm-6.092-.761v-.597h2.058v1.338H15.08c-.432.02-.761-.309-.761-.741zm.74-4.755h1.297v1.318H14.3v-.556c.02-.412.35-.762.762-.762zm4.035 3.746h2.058v-1.996h-2.058v1.996zm-2.306 1.77h1.894v-5.516h-1.894v5.516zm-2.47-1.77h2.059v-1.996H14.32v1.996zm6.854-2.984v.556h-2.058v-1.318h1.317c.391 0 .741.35.741.762zm-.761-1.194H15.06c-.659 0-1.194.535-1.194 1.194v3.993c0 .658.535 1.194 1.194 1.194h5.35c.66 0 1.194-.536 1.194-1.194v-3.993c0-.659-.535-1.194-1.193-1.194z" fill="url(#dafr16qm6c)"/>
        <path d="M42.228 15.007c0-.947-.35-1.709-1.07-2.306-1.955-1.646-3.93-3.293-5.886-4.94-.535-.452-1.132-.658-1.832-.678-2.84-.021-5.68-.062-8.52-.083-1.668-.02-2.84 1.173-2.84 2.84v20.87c0 1.276.72 2.285 1.872 2.655.309.103.659.144.988.144h14.407c1.708 0 2.86-1.152 2.86-2.86 0-5.228 0-10.435.021-15.643z" fill="url(#b4gyd2n8kd)"/>
        <path d="M34.819 29.62h-1.317v-1.338h2.058v.596c.02.412-.33.741-.741.741zm-6.092-.762v-.597h2.058V29.6h-1.297c-.432.02-.761-.309-.761-.741zm.74-4.754h1.297v1.317h-2.058v-.556c.02-.412.35-.761.762-.761zm4.035 3.745h2.058v-1.996h-2.058v1.996zm-2.306 1.77h1.894v-5.515h-1.894v5.515zm-2.47-1.77h2.059v-1.996h-2.058v1.996zm6.854-2.984v.556h-2.058v-1.317h1.317c.392 0 .741.35.741.761zm-.761-1.194h-5.351c-.659 0-1.194.535-1.194 1.194v3.993c0 .659.535 1.194 1.194 1.194h5.35c.66 0 1.195-.535 1.195-1.194v-3.993c0-.659-.535-1.194-1.194-1.194z" fill="url(#x3gaz5hque)"/>
        <path d="M30.929 18.052c.123-.452.205-.864.308-1.276.268-1.05.515-2.099.783-3.17.04-.143.082-.205.246-.184.453.02.927 0 1.38 0 .143 0 .164.04.143.185a299.04 299.04 0 0 0-1.132 4.59c-.04.144-.082.185-.226.185h-2.984c-.144 0-.206-.041-.227-.165-.37-1.523-.74-3.067-1.132-4.59-.04-.144-.02-.185.144-.185.453 0 .906.02 1.359 0 .165 0 .226.041.247.206.35 1.44.72 2.881 1.09 4.404zM36.157 15.912v2.285c0 .144-.041.185-.185.185h-1.38c-.123 0-.185-.02-.185-.165v-4.61c0-.144.042-.165.165-.165h1.44c.145 0 .165.041.165.165-.02.762-.02 1.544-.02 2.305z" fill="#FDFDFD"/>
        <path d="M36.238 19.926c0 .514-.432.967-.947.967-.514 0-.967-.432-.967-.947a.98.98 0 0 1 .967-.967c.515-.02.947.412.947.947z" fill="#FCC402"/>
    </g>
    <defs>
        <linearGradient id="zbdjgi4ecb" x1="8.862" y1="17.751" x2="24.382" y2="44.633" gradientUnits="userSpaceOnUse">
            <stop stop-color="#2A3B63"/>
            <stop offset="1" stop-color="#161F33"/>
        </linearGradient>
        <linearGradient id="dafr16qm6c" x1="15.614" y1="33.471" x2="19.869" y2="40.84" gradientUnits="userSpaceOnUse">
            <stop stop-color="#F4F8FE"/>
            <stop offset="1" stop-color="#D5E5F9"/>
        </linearGradient>
        <linearGradient id="b4gyd2n8kd" x1="23.269" y1="7.46" x2="38.789" y2="34.342" gradientUnits="userSpaceOnUse">
            <stop stop-color="#F1525F"/>
            <stop offset="1" stop-color="#EE2737"/>
        </linearGradient>
        <linearGradient id="x3gaz5hque" x1="28.973" y1="23.689" x2="35.324" y2="30.04" gradientUnits="userSpaceOnUse">
            <stop stop-color="#FFD133"/>
            <stop offset="1" stop-color="#FFA800"/>
        </linearGradient>
        <clipPath id="seztwvfmga">
            <path fill="#fff" transform="translate(7.67 7)" d="M0 0h34.557v36.8H0z"/>
        </clipPath>
    </defs>
</svg>
