<svg width="50" height="50" viewBox="0 0 50 50" fill="none" xmlns="http://www.w3.org/2000/svg">
    <g clip-path="url(#pxnbm50tha)">
        <path fill-rule="evenodd" clip-rule="evenodd" d="M39.4 21.047c0-1.34-.492-2.423-1.517-3.29-2.798-2.344-5.576-4.689-8.373-7.034-.749-.63-1.616-.945-2.601-.965L14.792 9.64c-2.364-.02-4.039 1.655-4.039 4.039V43.35c0 1.813 1.005 3.27 2.66 3.783.453.138.946.197 1.418.197 6.837.02 13.674.02 20.51 0 2.444 0 4.06-1.635 4.06-4.078V21.047z" fill="url(#ezsoamc5ub)"/>
        <path d="M9.394 5.286a.65.65 0 1 0 0-1.3.65.65 0 0 0 0 1.3zM14.22 3.197a.65.65 0 1 0 0-1.3.65.65 0 0 0 0 1.3zM5.65 8.635a.65.65 0 1 0 0-1.3.65.65 0 0 0 0 1.3z" fill="#2F3043"/>
        <path fill-rule="evenodd" clip-rule="evenodd" d="M13.55 7.512 9.884 5.404l.433 4.059-4.039-.946 4.512 5.359c1.123-2.463 3.31-3.842 6.561-4.157l-2.916-6.384-.886 4.177z" fill="#2F3043"/>
        <path d="M29.746 31.253s-.078 2.443-1.812 3.783c-.67.512-1.557.867-2.798.867s-2.128-.355-2.798-.867c-1.733-1.34-1.812-3.783-1.812-3.783h9.22zM20.664 27.332c.65 0 1.163-.788 1.163-1.773 0-.985-.532-1.773-1.163-1.773-.65 0-1.162.788-1.162 1.773 0 .985.512 1.773 1.162 1.773zM29.292 27.332c.65 0 1.162-.788 1.162-1.773 0-.985-.532-1.773-1.162-1.773-.65 0-1.162.788-1.162 1.773 0 .985.532 1.773 1.162 1.773z" fill="#292B3A"/>
        <path opacity=".3" d="M35.204 29.027c-3.428.394-6.66.67-8.787.315l-1.34-1.852-1.38 1.872c-1.083.157-2.422.157-3.88.098-.395-.02-.808-.04-1.222-.079-.433-.02-.867-.059-1.3-.098-.769-.06-1.577-.158-2.365-.236a58.334 58.334 0 0 1-.177-3.685c-.02-1.32.02-2.62.138-3.9 1.32-.08 2.66-.159 3.98-.198 2.207-.098 4.393-.138 6.6-.138h1.399c.414 0 .847 0 1.26.02 2.405.04 4.789.138 7.192.296.256 2.403.197 4.945-.118 7.585z" fill="#282B3C"/>
        <path opacity=".3" d="m25.45 21.126-8.156 8.157c-.768-.06-1.576-.158-2.364-.237a58.338 58.338 0 0 1-.178-3.684l4.098-4.098c2.207-.099 4.394-.138 6.6-.138zM28.11 21.166l-8.294 8.294c-.394-.02-.808-.04-1.221-.079l8.235-8.235c.434 0 .847 0 1.28.02z" fill="#fff"/>
        <path d="M27.934 35.036c-.67.512-1.557.867-2.798.867s-2.128-.355-2.798-.867c.63-.374 1.655-.61 2.798-.61s2.167.236 2.798.61z" fill="#EE2737"/>
    </g>
    <defs>
        <linearGradient id="ezsoamc5ub" x1="13.479" y1="12.1" x2="34.261" y2="48.095" gradientUnits="userSpaceOnUse">
            <stop stop-color="#FFD133"/>
            <stop offset="1" stop-color="#FFA800"/>
        </linearGradient>
        <clipPath id="pxnbm50tha">
            <path fill="#fff" transform="translate(5 1.897)" d="M0 0h34.4v45.473H0z"/>
        </clipPath>
    </defs>
</svg>
