<svg width="32" height="32" viewBox="0 0 32 32" fill="none" xmlns="http://www.w3.org/2000/svg">
    <path opacity=".01" fill="#D8D8D8" d="M0 0h32v32H0z"/>
    <rect x="2.667" y="2.667" width="26.667" height="26.667" rx="4" fill="#fff"/>
    <path d="M24.012 12.18a6.314 6.314 0 0 1-1.817.499 3.173 3.173 0 0 0 1.391-1.75 6.337 6.337 0 0 1-2.01.767 3.165 3.165 0 0 0-5.392 2.887 8.983 8.983 0 0 1-6.522-3.307 3.164 3.164 0 0 0 .98 4.225 3.143 3.143 0 0 1-1.434-.396v.04a3.166 3.166 0 0 0 2.538 3.102 3.153 3.153 0 0 1-1.429.055 3.168 3.168 0 0 0 2.956 2.198 6.35 6.35 0 0 1-4.684 1.31 8.95 8.95 0 0 0 4.85 1.422c5.82 0 9.003-4.822 9.003-9.004 0-.137-.003-.274-.009-.41a6.416 6.416 0 0 0 1.58-1.637z" fill="#2F3044"/>
</svg>
