<svg width="56" height="56" viewBox="0 0 56 56" fill="none" xmlns="http://www.w3.org/2000/svg">
    <circle cx="28" cy="28" r="28" fill="#FAEDD9"/>
    <path d="M19.78 35.037c-3.12-4.079-2.475-12.278-2.195-14.756a.987.987 0 0 1 .813-.852c1.139-.21 3.38-.67 4.886-1.28 1.223-.496 2.736-1.404 3.756-2.055.7-.447 1.603-.45 2.305-.005 1.021.648 2.535 1.553 3.752 2.06 1.32.548 3.27 1.033 4.268 1.264.387.09.69.39.757.782.403 2.364 1.545 10.681-1.52 14.842-1.841 2.5-5.968 4.541-7.663 5.306a1.795 1.795 0 0 1-1.494-.007c-1.684-.775-5.782-2.835-7.666-5.299z" stroke="#2F3043" stroke-width="2.4" stroke-linejoin="round"/>
    <path d="m33.333 26-6.222 5.333L24 28.667" stroke="#2F3043" stroke-width="2.4" stroke-linecap="round" stroke-linejoin="round"/>
</svg>
