<svg width="56" height="56" viewBox="0 0 56 56" fill="none" xmlns="http://www.w3.org/2000/svg">
    <circle cx="28" cy="28" r="28" fill="#FAEDD9"/>
    <path d="M20.255 38.97c1.614 0 2.922-1.287 2.922-2.875 0-1.589-1.308-2.876-2.922-2.876-1.613 0-2.922 1.287-2.922 2.876 0 1.588 1.309 2.876 2.922 2.876z" stroke="#2F3043" stroke-width="2.4" stroke-miterlimit="10" stroke-linecap="round"/>
    <path d="M20.255 38.97c1.614 0 2.922-1.287 2.922-2.875 0-1.589-1.308-2.876-2.922-2.876-1.613 0-2.922 1.287-2.922 2.876 0 1.588 1.309 2.876 2.922 2.876zM37.069 38.97c1.614 0 2.922-1.287 2.922-2.875 0-1.589-1.308-2.876-2.922-2.876s-2.922 1.287-2.922 2.876c0 1.588 1.308 2.876 2.922 2.876zM22.054 33.121l3.81-6.657M31.386 26.45l3.92 6.651" stroke="#2F3043" stroke-width="2.4" stroke-miterlimit="10" stroke-linecap="round"/>
    <path d="M28.647 26.168c2.479 0 4.488-1.978 4.488-4.417 0-2.44-2.01-4.418-4.488-4.418-2.478 0-4.488 1.978-4.488 4.418 0 2.44 2.01 4.417 4.488 4.417z" stroke="#2F3043" stroke-width="2.4" stroke-miterlimit="10"/>
</svg>
